<svg xmlns="http://www.w3.org/2000/svg" viewBox="0 0 161.19 160.98"><defs><style>.cls-1{fill:#fff;}</style></defs><title>logoPinterest</title><g id="Capa_2" data-name="Capa 2"><g id="Capa_1-2" data-name="Capa 1"><path class="cls-1" d="M80.91,0c44.77.13,80.49,36.35,80.27,81.4C161,125.18,124.27,161.34,80,161,33.6,160.6-2,121.48.09,76.68,2.05,34,38.13-.75,80.91,0ZM74.38,95.22c9.82,8.13,21.87,7.78,30.92-.78s12.26-19.83,11.27-31.8c-1.4-16.91-13.82-27.75-31.45-28.74C63.76,32.7,47.83,44.48,44.48,64,43,72.47,47.34,86.45,57,87.91c1.68-3.37,3.37-6.5.42-10.39a13.89,13.89,0,0,1-2.3-7c-1.19-13.33,7.23-24.5,20.32-27.32,12.08-2.6,23.74,2.37,26.73,12.6,1.56,5.34,1.37,11.55.54,17.14-1,6.72-3.53,13.19-9.91,17.14-3.9,2.42-7.75,2.75-11.63.06s-3.53-6.46-2.53-10.32C80,74.57,82,69.35,82.56,64A11.16,11.16,0,0,0,79,55.59c-2.89-2.37-6.68-1.11-9.43,1.65-3.82,3.85-5.43,8.88-4,13.75,1.62,5.52.49,10.41-.76,15.53-1.45,6-3,11.89-4.31,17.88-1.61,7.41-2.13,14.83,0,22.88C69.24,118,71.8,106.81,74.38,95.22Z"/></g></g></svg>