<svg xmlns="http://www.w3.org/2000/svg" viewBox="0 0 161.21 161.03"><defs><style>.cls-1{fill:#fff;}</style></defs><title>logoInstagram</title><g id="Capa_2" data-name="Capa 2"><g id="Capa_1-2" data-name="Capa 1"><path class="cls-1" d="M80.57,161C35.94,161-.24,124.85,0,80.48A80.83,80.83,0,0,1,80.88,0C125,.08,161.1,36.31,161.21,80.54A80.41,80.41,0,0,1,80.57,161Zm42.9-80.53c0-7.83.07-15.66,0-23.48-.13-11.93-7.42-19.22-19.38-19.29q-23.49-.13-47,0C45.18,37.8,37.78,45.19,37.72,57q-.12,23.73,0,47.46c.07,11.21,7.41,19,18.64,19.22q24.23.44,48.46,0c11.25-.21,18.49-8,18.61-19.23C123.53,96.49,123.46,88.49,123.47,80.5Z"/><path class="cls-1" d="M115.83,80.86c0,8,.08,16,0,24-.09,7.17-4,11.23-11.08,11.28q-24.24.15-48.49,0c-6.83-.05-10.78-4.11-10.82-11q-.15-24.5,0-49c0-6.92,4.34-11.1,11.31-11.12q24-.1,48,0c6.66,0,11,4.23,11.09,10.85C115.94,64.2,115.83,72.53,115.83,80.86Zm-13.07-.09a22.16,22.16,0,1,0-44.31-.24,22.16,22.16,0,1,0,44.31.24Zm7.72-24.87c-1.94-1.29-3.74-3.36-5.83-3.7-3.36-.54-5.18,1.77-5.07,5.2.1,3.26,2,4.82,5.15,4.76S109.48,60.23,110.48,55.9Z"/><path class="cls-1" d="M80.78,65.83A14.85,14.85,0,0,1,95.61,80.7a15.46,15.46,0,0,1-14.93,15A15.37,15.37,0,0,1,65.61,80.35,14.83,14.83,0,0,1,80.78,65.83Z"/></g></g></svg>