<svg xmlns="http://www.w3.org/2000/svg" viewBox="0 0 160.83 160.51"><defs><style>.cls-1{fill:#fff;}</style></defs><title>logoWhatsapp</title><g id="Capa_2" data-name="Capa 2"><g id="Capa_1-2" data-name="Capa 1"><path class="cls-1" d="M160.82,76.59C154.81-25.33,1.89-27.71,0,82.59,7.67,191.42,162.18,183.32,160.82,76.59Zm-36.17,11c-4.72,26.15-34,43.21-61.15,31.9-9.74-2.57-18.37,3.53-28,5.86,5.21-15.41,8.84-20,2.09-40.36C34,63.67,47.28,43.34,69.77,36.88,100.52,28,130.36,55.16,124.65,87.57Z"/><path class="cls-1" d="M92.83,44.6c-21.38-8.46-46.15,7.6-49.19,29.6C41,88.28,55.34,101,45.35,114.74c7.69-1.51,10.15-5,17-3.24C110.19,134.88,143.33,64.61,92.83,44.6ZM91.52,99.8c-11.17,1-44-26.93-27.69-39.67,2.18-1.13,4-1.24,5.61.2C83.25,77.72,56.85,70.12,84.1,89.18c2,.53,3.35.54,5-1,4.09-6.08,9.6-1.27,13.39.64C105.5,95.08,98.51,100,91.52,99.8Z"/></g></g></svg>