<svg xmlns="http://www.w3.org/2000/svg" viewBox="0 0 161.23 161.03"><defs><style>.cls-1{fill:#fff;}</style></defs><title>logoYoutube</title><g id="Capa_2" data-name="Capa 2"><g id="Capa_1-2" data-name="Capa 1"><path class="cls-1" d="M80.61,161C37.37,161.82-1,124.77,0,78,1,35.88,37.4-.06,80.88,0c44.22.06,80.43,36.54,80.35,81C161.15,125.11,125,161.05,80.61,161Zm-.78-47.52c11.3-.51,22.6-.95,33.89-1.55,6.66-.35,10.21-3.26,11.51-9.64a111.44,111.44,0,0,0,.37-41.63c-1.53-8.73-5.07-11.6-14-11.65-21.11-.14-42.22-.1-63.33,0-6.78,0-10.64,3-12.06,9.58a107.6,107.6,0,0,0-.07,44c1.21,6.08,5,9,11.26,9.32C58.21,112.55,69,113,79.83,113.49Z"/><path class="cls-1" d="M69.57,64.84,98,79.68c-9.81,5.09-18.85,9.76-28.39,14.7Z"/></g></g></svg>