<svg xmlns="http://www.w3.org/2000/svg" viewBox="0 0 161.2 160.99"><defs><style>.cls-1{fill:#fff;}</style></defs><title>logoFacebook</title><g id="Capa_2" data-name="Capa 2"><g id="Capa_1-2" data-name="Capa 1"><path class="cls-1" d="M80.43,161A80.41,80.41,0,0,1,0,80.26C0,36.3,36.42-.13,80.5,0,127.07.14,162,38.82,161.19,82.63,160.37,125.39,124.41,161,80.43,161Zm24-129c-6.66,0-12.84-.37-19,.09-10.07.75-17,8.15-17.58,18.33-.22,3.78,0,7.58,0,11.59L58,62.49V82.78h9.85v50H88.22V82.52h14.55c.44-3.64.89-6.93,1.2-10.23s.46-6.46.73-10.28H88.87c0-2.22,0-3.88,0-5.53.06-6.36.89-7.2,7.18-7.25,2.75,0,5.5,0,8.38,0Z"/></g></g></svg>